<?xml version="1.0" encoding="UTF-8"?>
<!DOCTYPE svg PUBLIC "-//W3C//DTD SVG 1.1//EN" "http://www.w3.org/Graphics/SVG/1.1/DTD/svg11.dtd">
<!-- Creator: CorelDRAW -->
<svg xmlns="http://www.w3.org/2000/svg" xml:space="preserve" width="814.581mm" height="186.884mm" version="1.1" style="shape-rendering:geometricPrecision; text-rendering:geometricPrecision; image-rendering:optimizeQuality; fill-rule:evenodd; clip-rule:evenodd"
viewBox="0 0 172501.14 39575.83"
 xmlns:xlink="http://www.w3.org/1999/xlink"
 xmlns:xodm="http://www.corel.com/coreldraw/odm/2003">
 <defs>
  <style type="text/css">
   <![CDATA[
    .fil1 {fill:#1F1B20}
    .fil2 {fill:#6A231C;fill-rule:nonzero}
    .fil0 {fill:#1F1B20;fill-rule:nonzero}
   ]]>
  </style>
 </defs>
 <g id="Layer_x0020_1">
  <metadata id="CorelCorpID_0Corel-Layer"/>
  <path class="fil0" d="M-0 27304.44l0 -27304.44 7783.04 0 0 1020.74 -4210.49 0 0 25262.99 4210.49 0 0 1020.72 -7783.04 0zm14262.45 -9952.08l5544.9 -4657.07 -2987.75 0 0 -956.93 6661.29 0 0 956.93 -2365.75 0 -3285.45 2711.31 6134.99 7846.83 1307.81 0 0 956.93 -8080.74 0 0 -956.93 1605.51 0 -4534.79 -5901.07zm-6055.24 5901.07l1562.99 0 0 -18819.64 -1562.99 0 0 -956.93c839.97,-31.89 1749.04,-79.75 2727.26,-143.54 972.88,-63.81 2030.8,-143.54 3173.81,-239.23l0 20159.34 2009.56 0 0 956.93 -7910.63 0 0 -956.93zm24528.2 4051.01l-7814.93 0 0 -1020.72 4242.39 0 0 -25262.99 -4242.39 0 0 -1020.74 7814.93 0 0 27304.44z"/>
  <path class="fil1" d="M45259.63 17352.36l5544.9 -4657.07 -2987.75 0 0 -956.93 6661.29 0 0 956.93 -2365.75 0 -3285.45 2711.31 6134.99 7846.83 1307.81 0 0 956.93 -8080.74 0 0 -956.93 1605.51 0 -4534.79 -5901.07zm-6055.24 5901.07l1562.99 0 0 -18819.64 -1562.99 0 0 -956.93c839.97,-31.89 1749.04,-79.75 2727.26,-143.54 972.88,-63.81 2030.8,-143.54 3173.81,-239.23l0 20159.34 2009.56 0 0 956.93 -7910.63 0 0 -956.93zm16202.89 -5263.12c0,-1940.44 691.12,-3524.69 2073.34,-4758.08 1382.24,-1228.06 3168.52,-1844.74 5358.82,-1844.74 2200.93,0 3997.84,611.37 5385.4,1839.43 1387.56,1222.76 2078.66,2801.69 2078.66,4731.5 0,1929.81 -696.42,3514.06 -2089.29,4747.43 -1392.87,1238.71 -3184.46,1855.39 -5374.77,1855.39 -2190.3,0 -3976.58,-611.37 -5358.82,-1839.43 -1382.22,-1222.76 -2073.34,-2801.69 -2073.34,-4731.5zm7464.06 -5837.29c-983.51,0 -1653.35,313.67 -1998.91,940.99 -345.56,632.65 -521.01,2254.11 -521.01,4869.72l0 1281.23c0,1982.96 175.45,3237.62 526.32,3763.92 356.19,526.3 1020.72,786.82 1993.59,786.82 972.88,0 1632.11,-297.72 1972.35,-887.83 345.56,-595.42 515.67,-2083.98 515.67,-4470.99l0 -1844.76c0,-1897.9 -175.43,-3115.32 -526.3,-3641.65 -356.19,-531.62 -1010.11,-797.45 -1961.72,-797.45zm8100.88 11100.41l1913.86 0 0 -10590.03 -2105.24 0 0 -988.84c1121.73,0 2216.88,-21.26 3285.45,-58.47 1068.57,-37.21 2131.83,-90.38 3189.78,-164.8l0 3163.18c611.37,-1100.47 1323.75,-1903.23 2126.5,-2408.27 802.77,-505.04 1791.59,-754.91 2950.55,-754.91 1371.59,0 2328.52,287.07 2860.16,855.92 536.93,574.16 802.77,1786.27 802.77,3641.65l0 7304.58 1850.06 0 0 956.93 -7783.04 0 0 -956.93 1626.79 0 0 -8814.39c0,-579.48 -101.01,-999.48 -308.35,-1259.97 -207.34,-260.49 -542.25,-388.08 -999.45,-388.08 -776.19,0 -1488.57,457.2 -2131.83,1371.59 -643.26,914.41 -962.25,1956.41 -962.25,3125.97l0 5964.88 1594.88 0 0 956.93 -7910.63 0 0 -956.93zm31099.13 -11865.95l0 11834.05 2041.45 0 0 956.93c-994.14,0 -2020.17,21.26 -3067.48,63.78 -1047.31,42.54 -2163.73,106.33 -3343.94,191.39l0 -3147.23c-622,1132.36 -1339.7,1956.39 -2153.1,2472.06 -808.08,515.69 -1780.96,770.87 -2908,770.87 -717.7,0 -1345.02,-101.01 -1881.97,-303.04 -531.62,-202.03 -962.25,-505.04 -1281.23,-898.44 -186.06,-249.86 -318.96,-552.9 -398.71,-903.78 -79.75,-356.19 -116.96,-861.23 -116.96,-1525.78l0 -1345.02 0 -6889.89 -2073.34 0 0 -956.93c1233.37,-21.26 2381.7,-58.49 3439.62,-111.64 1057.94,-58.49 2036.14,-127.59 2939.91,-207.34l0 10053.1c0,584.79 106.33,1010.08 313.67,1281.23 207.32,271.12 542.25,404.03 999.45,404.03 776.17,0 1488.55,-467.84 2126.52,-1398.19 643.26,-930.33 962.25,-1977.65 962.25,-3152.55l0 -5911.7 -2264.74 0 0 -972.88c988.82,0 2020.19,-26.6 3099.4,-74.44 1079.21,-53.15 2270.05,-127.59 3567.21,-228.6zm2391.21 12822.88l0 -4625.18 797.45 0c361.51,1371.61 930.35,2408.3 1701.21,3104.71 528.34,474.06 1138.01,785.49 1828.94,936.07l0 880.84c-371.1,-44.7 -723.52,-116.92 -1058.09,-216.7 -606.06,-180.76 -1142.99,-435.94 -1594.88,-776.19l-909.07 696.44 -765.56 0zm5926.59 -510.97c636.99,-75.33 1175.26,-281.52 1617.22,-616.07 563.53,-430.63 845.29,-967.56 845.29,-1610.85 0,-808.08 -930.35,-1329.07 -2785.73,-1557.67 -531.64,-63.78 -940.99,-116.96 -1228.06,-170.11 -1642.74,-239.23 -2791.06,-653.91 -3450.27,-1249.34 -659.23,-590.11 -988.82,-1472.6 -988.82,-2647.51 0,-1360.96 404.03,-2445.48 1217.43,-3253.56 808.08,-802.77 1903.23,-1206.79 3285.45,-1206.79 521.01,0 1042,63.81 1557.67,186.08 521.01,127.59 1010.11,308.33 1467.29,547.57l669.86 -579.48 637.95 0 95.7 3545.97 -797.45 0c-329.59,-967.56 -797.43,-1701.21 -1403.48,-2195.62 -600.74,-494.41 -1329.07,-738.98 -2190.32,-738.98 -845.29,0 -1536.39,164.82 -2089.29,499.75 -547.57,329.59 -824.03,733.64 -824.03,1212.11 0,685.79 1073.89,1164.25 3221.67,1430.08 345.56,42.52 616.69,79.73 813.4,111.64 1669.31,207.32 2838.9,643.26 3508.74,1302.47 669.86,659.23 1004.77,1674.63 1004.77,3056.87 0,1493.87 -430.61,2668.77 -1291.84,3519.37 -731.51,722.46 -1696.99,1138.03 -2893.14,1246.88l0 -832.81zm19048.18 -12311.91l0 11834.05 2041.45 0 0 956.93c-994.14,0 -2020.17,21.26 -3067.48,63.78 -1047.31,42.54 -2163.73,106.33 -3343.94,191.39l0 -3147.23c-622,1132.36 -1339.7,1956.39 -2153.1,2472.06 -808.08,515.69 -1780.96,770.87 -2908,770.87 -717.7,0 -1345.02,-101.01 -1881.97,-303.04 -531.62,-202.03 -962.25,-505.04 -1281.23,-898.44 -186.06,-249.86 -318.96,-552.9 -398.71,-903.78 -79.75,-356.19 -116.96,-861.23 -116.96,-1525.78l0 -1345.02 0 -6889.89 -2073.34 0 0 -956.93c1233.37,-21.26 2381.7,-58.49 3439.62,-111.64 1057.94,-58.49 2036.14,-127.59 2939.91,-207.34l0 10053.1c0,584.79 106.33,1010.08 313.67,1281.23 207.32,271.12 542.25,404.03 999.45,404.03 776.17,0 1488.55,-467.84 2126.52,-1398.19 643.26,-930.33 962.25,-1977.65 962.25,-3152.55l0 -5911.7 -2264.74 0 0 -972.88c988.82,0 2020.19,-26.6 3099.4,-74.44 1079.21,-53.15 2270.05,-127.59 3567.21,-228.6zm1880.85 12822.88l0 -956.93 1690.58 0 0 -10526.25 -1722.47 0 0 -956.93c1010.08,-42.52 2014.85,-90.36 3014.33,-154.17 1004.77,-58.49 2009.56,-138.22 3014.33,-228.6l0 3418.38c425.29,-1073.89 983.51,-1908.55 1674.63,-2514.6 691.12,-600.74 1430.08,-903.78 2222.2,-903.78 786.82,0 1446.03,255.18 1977.67,765.54 526.3,510.38 792.13,1137.7 792.13,1887.29 0,664.55 -212.66,1212.11 -637.97,1642.74 -430.61,430.61 -967.56,648.58 -1626.77,648.58 -568.85,0 -1052.63,-207.32 -1446.03,-622 -398.74,-419.98 -595.42,-919.72 -595.42,-1515.15 0,-228.58 63.78,-462.5 186.06,-701.73 127.59,-239.23 191.39,-398.74 191.39,-483.78 0,-53.17 -26.58,-95.7 -74.44,-132.93 -42.52,-37.21 -101.01,-53.15 -175.43,-53.15 -457.2,0 -967.56,515.67 -1536.41,1541.73 -568.85,1031.37 -855.92,2110.57 -855.92,3242.93l0 5645.89 2296.63 0 0 956.93 -8389.1 0zm27244.8 -12822.88l0 11834.05 2041.45 0 0 956.93c-994.14,0 -2020.17,21.26 -3067.48,63.78 -1047.31,42.54 -2163.73,106.33 -3343.94,191.39l0 -3147.23c-622,1132.36 -1339.7,1956.39 -2153.1,2472.06 -808.08,515.69 -1780.96,770.87 -2908,770.87 -717.7,0 -1345.02,-101.01 -1881.97,-303.04 -531.62,-202.03 -962.25,-505.04 -1281.23,-898.44 -186.06,-249.86 -318.96,-552.9 -398.71,-903.78 -79.75,-356.19 -116.96,-861.23 -116.96,-1525.78l0 -1345.02 0 -6889.89 -2073.34 0 0 -956.93c1233.37,-21.26 2381.7,-58.49 3439.62,-111.64 1057.94,-58.49 2036.14,-127.59 2939.91,-207.34l0 10053.1c0,584.79 106.33,1010.08 313.67,1281.23 207.32,271.12 542.25,404.03 999.45,404.03 776.17,0 1488.55,-467.84 2126.52,-1398.19 643.26,-930.33 962.25,-1977.65 962.25,-3152.55l0 -5911.7 -2264.74 0 0 -972.88c988.82,0 2020.19,-26.6 3099.4,-74.44 1079.21,-53.15 2270.05,-127.59 3567.21,-228.6zm1944.63 12822.88l0 -669.86 7017.5 -10813.32 -2169.04 0c-738.96,0 -1345.02,265.81 -1828.8,802.77 -483.78,531.62 -1010.11,1573.62 -1584.27,3120.66l-861.23 0 154.19 -4880.35 11169.51 0 0 760.24 -6985.61 10722.93 2169.04 0c893.15,0 1626.79,-308.35 2211.59,-919.72 579.48,-611.37 1196.16,-1759.68 1839.43,-3450.25l861.23 0 -223.27 5326.91 -11770.27 0z"/>
  <path class="fil2" d="M128587.88 35485.43l887.07 0 0 -5437.43 -1018.49 0 0 -492.8c503.77,0 1021.24,-13.7 1555.13,-38.35 531.13,-24.63 1086.94,-60.23 1664.61,-109.5l0 1645.47c303.91,-572.21 662.58,-991.11 1075.99,-1251.22 410.7,-262.82 908.99,-394.25 1489.42,-394.25 599.6,0 1056.82,134.15 1371.68,399.73 314.85,268.31 481.85,665.31 498.29,1188.24 303.91,-550.32 665.31,-952.78 1078.72,-1207.41 413.43,-254.63 917.2,-380.57 1503.1,-380.57 369.62,0 687.2,49.28 952.78,147.86 262.84,98.56 481.88,251.88 651.63,462.69 104.04,117.72 175.22,260.09 219.03,432.6 41.06,169.73 62.96,413.41 62.96,728.27l0 473.66 0 3833.02 1002.08 0 0 492.82 -4073.97 0 0 -492.82 854.22 0 0 -4522.98c0,-298.42 -52.03,-514.72 -158.8,-648.87 -106.77,-134.15 -279.26,-199.87 -514.72,-199.87 -405.22,0 -772.08,232.73 -1100.64,698.15 -328.53,465.44 -492.82,1004.81 -492.82,1618.09l0 3055.48 804.95 0 0 492.82 -3811.12 0 0 -492.82 837.79 0 0 -4522.98c0,-298.42 -52.03,-514.72 -158.8,-648.87 -106.77,-134.15 -279.26,-199.87 -514.72,-199.87 -394.25,0 -752.92,232.73 -1075.99,700.91 -323.07,468.17 -484.61,1007.54 -484.61,1615.34l0 3055.48 804.95 0 0 492.82 -3909.7 0 0 -492.82zm15692.95 -3482.57l2168.39 0 0 -1245.74c0,-347.72 -87.61,-599.6 -260.09,-755.67 -172.48,-156.05 -449.01,-232.71 -826.84,-232.71 -364.13,0 -635.17,82.14 -813.14,246.41 -177.97,161.54 -268.31,410.68 -268.31,741.97l0 1245.74zm4008.26 1806.98l377.81 128.69c-273.79,752.92 -673.5,1311.45 -1199.19,1675.58 -528.4,364.13 -1204.66,544.83 -2034.23,544.83 -1138.97,0 -2050.69,-301.17 -2729.67,-906.23 -678.99,-605.08 -1018.49,-1410.01 -1018.49,-2414.82 0,-993.84 350.45,-1820.69 1054.09,-2477.78 703.64,-657.09 1590.71,-985.63 2661.21,-985.63 982.89,0 1760.46,271.04 2329.94,815.87 569.48,542.1 854.22,1284.07 854.22,2225.9l0 79.39 -4303.95 0 0 1612.62c0,626.96 98.56,1056.82 292.94,1289.53 194.4,232.71 533.89,350.45 1021.24,350.45 657.09,0 1210.14,-161.54 1659.15,-487.34 449.01,-323.07 793.98,-807.68 1034.93,-1451.09zm6082.98 -416.14l0 -1226.57c0,-706.37 -167.02,-1267.64 -501.04,-1686.53 -334.02,-418.9 -772.08,-629.71 -1316.91,-629.71 -306.64,0 -517.45,79.39 -635.19,240.93 -117.72,158.8 -175.22,479.12 -175.22,961l0 3414.12c0,490.09 60.23,818.63 180.7,991.11 120.47,172.48 328.53,257.36 629.71,257.36 544.83,0 982.89,-210.81 1316.91,-629.71 334.02,-421.63 501.04,-985.63 501.04,-1691.99zm0 2584.55l0 -1021.22c-246.41,405.19 -544.83,709.1 -895.29,914.45 -350.45,202.6 -755.65,303.91 -1221.09,303.91 -856.96,0 -1574.29,-325.82 -2154.73,-974.7 -580.43,-648.87 -870.64,-1453.8 -870.64,-2409.33 0,-988.36 287.47,-1806.98 859.69,-2450.4 572.21,-643.41 1292.29,-966.46 2165.67,-966.46 459.96,0 865.17,104.02 1218.36,309.37 353.18,205.35 651.61,511.99 898.02,919.94l0 -4810.47 -1264.9 0 8.22 -492.8c678.99,-16.43 1311.45,-41.08 1894.61,-73.93 583.16,-35.6 1108.83,-76.66 1579.76,-123.21l0 10382.03 887.07 0 0 492.82 -3104.75 0zm6282.84 1894.61c-249.14,580.43 -520.2,1010.28 -813.14,1286.8 -290.23,276.52 -618.76,416.16 -980.16,416.16 -336.77,0 -596.86,-87.61 -777.57,-260.11 -183.43,-175.22 -273.79,-421.63 -273.79,-741.95 0,-276.52 93.09,-509.26 276.52,-692.69 183.45,-183.43 416.16,-276.52 692.69,-276.52 273.79,0 501.04,93.09 687.2,279.26 183.45,186.19 298.44,279.26 347.72,279.26 84.88,0 158.78,-32.85 216.3,-95.82 57.49,-65.71 128.67,-191.65 208.06,-380.57l722.8 -1694.75 -3014.39 -5927.5 -695.42 0 0 -492.82 3926.11 0 0 492.82 -802.19 0 1601.66 3433.31 1218.36 -2806.33c38.33,-82.14 62.96,-147.86 76.66,-197.13 13.68,-52.01 21.9,-109.5 21.9,-172.48 0,-82.14 -38.33,-145.1 -112.26,-188.92 -76.66,-46.55 -186.16,-68.44 -328.53,-68.44l-626.98 0 0 -492.82 2565.38 0 0 492.82 -449.01 0c-145.1,0 -260.09,35.6 -344.97,104.04 -84.88,71.17 -158.8,186.16 -224.49,353.18l-3118.46 7351.21zm8790.75 -2847.39c-328.53,391.51 -684.47,676.26 -1073.25,851.47 -386.03,177.97 -851.47,265.58 -1390.84,265.58 -550.3,0 -974.68,-139.62 -1275.85,-416.14 -298.42,-279.28 -449.01,-676.26 -449.01,-1188.24 0,-695.42 372.35,-1251.22 1114.32,-1667.37 744.7,-413.43 1752.24,-621.51 3025.36,-621.51l0 -1555.11c0,-358.67 -76.66,-596.86 -227.25,-714.59 -153.32,-117.72 -443.55,-177.97 -870.64,-177.97 -276.52,0 -487.36,32.87 -629.73,95.82 -142.35,65.71 -210.81,158.8 -210.81,282.01 0,32.87 49.3,136.89 147.86,317.59 98.56,177.97 147.83,358.67 147.83,542.1 0,309.39 -95.82,547.59 -284.74,714.59 -188.9,167.02 -459.96,249.16 -813.14,249.16 -312.12,0 -550.32,-84.88 -720.07,-257.36 -167,-172.51 -251.88,-421.65 -251.88,-747.45 0,-514.72 265.58,-914.45 793.98,-1196.46 528.42,-284.74 1278.61,-427.09 2245.07,-427.09 427.11,0 815.89,30.11 1163.59,93.07 347.72,60.25 632.46,150.59 856.96,268.31 251.9,128.69 427.11,287.49 525.69,473.66 98.56,188.92 147.83,528.42 147.83,1021.22l0 3318.32c0,194.38 41.06,336.75 123.21,424.36 84.88,90.36 213.55,134.18 391.51,134.18 73.93,0 153.32,-24.65 235.46,-73.93 84.88,-49.28 142.37,-73.93 172.48,-73.93 43.81,0 82.14,16.43 112.26,49.28 32.85,32.87 49.28,71.2 49.28,120.47 0,202.6 -156.05,424.36 -468.17,659.82 -314.85,235.46 -670.79,353.18 -1073.25,353.18 -358.67,0 -670.77,-98.56 -936.35,-298.42 -268.31,-197.13 -459.98,-470.93 -577.7,-818.63zm-49.28 -2332.67l-191.65 0c-662.58,0 -1128.02,95.82 -1396.33,284.74 -265.58,188.92 -399.73,509.24 -399.73,963.73 0,465.44 71.2,796.73 213.57,996.6 139.62,199.87 372.35,301.15 692.67,301.15 320.34,0 580.43,-106.77 780.3,-320.32 199.87,-213.57 301.17,-498.31 301.17,-848.74l0 -1377.16z"/>
 </g>
</svg>
