<?xml version="1.0" encoding="UTF-8"?>
<!DOCTYPE svg PUBLIC "-//W3C//DTD SVG 1.1//EN" "http://www.w3.org/Graphics/SVG/1.1/DTD/svg11.dtd">
<!-- Creator: CorelDRAW -->
<svg xmlns="http://www.w3.org/2000/svg" xml:space="preserve" width="154.582mm" height="128.936mm" version="1.1" style="shape-rendering:geometricPrecision; text-rendering:geometricPrecision; image-rendering:optimizeQuality; fill-rule:evenodd; clip-rule:evenodd"
viewBox="0 0 6212.17 5181.54"
 xmlns:xlink="http://www.w3.org/1999/xlink"
 xmlns:xodm="http://www.corel.com/coreldraw/odm/2003">
 <defs>
  <style type="text/css">
   <![CDATA[
    .fil0 {fill:#1F1B20;fill-rule:nonzero}
   ]]>
  </style>
 </defs>
 <g id="Layer_x0020_1">
  <metadata id="CorelCorpID_0Corel-Layer"/>
  <path class="fil0" d="M-0 5181.54l0 -5181.54 1476.98 0 0 193.7 -799.02 0 0 4794.14 799.02 0 0 193.7 -1476.98 0zm2706.57 -1888.6l1052.25 -883.77 -566.98 0 0 -181.6 1264.11 0 0 181.6 -448.95 0 -623.48 514.52 1164.23 1489.09 248.18 0 0 181.6 -1533.48 0 0 -181.6 304.68 0 -860.56 -1119.84zm-1149.1 1119.84l296.61 0 0 -3571.39 -296.61 0 0 -181.6c159.4,-6.05 331.91,-15.13 517.55,-27.24 184.62,-12.11 385.38,-27.24 602.29,-45.4l0 3825.62 381.35 0 0 181.6 -1501.19 0 0 -181.6zm4654.7 768.76l-1483.03 0 0 -193.7 805.07 0 0 -4794.14 -805.07 0 0 -193.7 1483.03 0 0 5181.54z"/>
 </g>
</svg>
