<?xml version="1.0" encoding="UTF-8"?>
<!DOCTYPE svg PUBLIC "-//W3C//DTD SVG 1.1//EN" "http://www.w3.org/Graphics/SVG/1.1/DTD/svg11.dtd">
<!-- Creator: CorelDRAW -->
<svg xmlns="http://www.w3.org/2000/svg" xml:space="preserve" width="629.451mm" height="172.273mm" version="1.1" style="shape-rendering:geometricPrecision; text-rendering:geometricPrecision; image-rendering:optimizeQuality; fill-rule:evenodd; clip-rule:evenodd"
viewBox="0 0 2751562.12 753070.15"
 xmlns:xlink="http://www.w3.org/1999/xlink"
 xmlns:xodm="http://www.corel.com/coreldraw/odm/2003">
 <defs>
  <style type="text/css">
   <![CDATA[
    .fil0 {fill:#1F1B20}
    .fil1 {fill:#6A231C;fill-rule:nonzero}
   ]]>
  </style>
 </defs>
 <g id="Layer_x0020_1">
  <metadata id="CorelCorpID_0Corel-Layer"/>
  <path class="fil0" d="M124994.49 294324.71l114459.92 -96132.96 -61674.33 0 0 -19753.34 137504.91 0 0 19753.34 -48834.75 0 -67819.6 55967.95 126640.74 161977.14 26996.26 0 0 19753.34 -166805.76 0 0 -19753.34 33141.53 0 -93608.93 -121812.13zm-124994.49 121812.13l32263.76 0 0 -388482.25 -32263.76 0 0 -19753.34c17339.03,-658.33 36104.45,-1646.26 56297.11,-2962.91 20082.51,-1317.09 41920.55,-2962.91 65515.02,-4938.34l0 416136.84 41482.11 0 0 19753.34 -163294.24 0 0 -19753.34zm334466.12 -108643.38c0,-40055.29 14266.4,-72757.94 42798.76,-98218.1 28532.8,-25350.01 65405.73,-38079.87 110618.8,-38079.87 45432.51,0 82524.89,12620.14 111167.41,37970.15 28642.52,25240.72 42908.48,57833.65 42908.48,97669.5 0,39835.85 -14375.68,72538.5 -43127.93,97998.22 -28752.24,25569.89 -65734.9,38299.75 -110947.97,38299.75 -45213.07,0 -82086,-12620.14 -110618.8,-37970.15 -28532.36,-25240.72 -42798.76,-57833.65 -42798.76,-97669.5zm154075.89 -120495.47c-20301.95,0 -34129.03,6474.87 -41262.23,19424.18 -7133.2,13059.46 -10754.88,46530.16 -10754.88,100522.69l0 26447.66c0,40933.06 3621.68,66832.11 10864.6,77696.27 7352.64,10864.16 21070,16241.82 41152.5,16241.82 20082.51,0 33690.58,-6145.71 40714.06,-18326.96 7133.2,-12290.98 10644.72,-43018.2 10644.72,-92291.84l0 -38080.31c0,-39177.08 -3621.24,-64307.65 -10864.16,-75172.25 -7352.64,-10973.88 -20850.99,-16461.26 -40494.61,-16461.26zm167221.47 229138.85l39506.68 0 0 -218603.42 -43457.09 0 0 -20412.11c23155.14,0 45761.68,-438.89 67819.6,-1206.93 22057.93,-768.05 44006.13,-1865.7 65844.62,-3401.8l0 65295.58c12620.14,-22716.26 27325.43,-39287.24 43895.98,-49712.52 16570.99,-10425.28 36982.66,-15583.06 60906.28,-15583.06 28312.92,0 48066.26,5925.83 59040.58,17668.2 11083.61,11852.09 16570.99,36872.93 16570.99,75172.25l0 150783.81 38189.59 0 0 19753.34 -160660.49 0 0 -19753.34 33580.86 0 0 -181949.93c0,-11961.81 -2085.14,-20631.55 -6365.15,-26008.77 -4280.01,-5377.22 -11193.33,-8010.97 -20631.11,-8010.97 -16022.38,0 -30727.66,9437.79 -44006.13,28312.92 -13278.47,18875.57 -19863.06,40384.89 -19863.06,64527.53l0 123129.22 32922.09 0 0 19753.34 -163294.24 0 0 -19753.34zm641960.01 -244941.35l0 244283.03 42140.43 0 0 19753.34c-20521.39,0 -41701.11,438.89 -63320.15,1316.66 -21619.04,878.21 -44664.46,2194.86 -69026.98,3950.84l0 -64966.41c-12839.58,23374.58 -27654.59,40384.45 -44445.02,51029.18 -16680.71,10645.16 -36763.21,15912.66 -60028.08,15912.66 -14815.01,0 -27764.31,-2085.14 -38848.36,-6255.43 -10973.88,-4170.29 -19863.06,-10425.28 -26447.66,-18545.97 -3840.68,-5157.78 -6584.16,-11413.21 -8230.41,-18656.13 -1646.26,-7352.64 -2414.31,-17777.92 -2414.31,-31495.71l0 -27764.31 0 -142223.8 -42798.76 0 0 -19753.34c25459.73,-438.89 49163.91,-1207.37 71001.96,-2304.59 21838.48,-1207.37 42030.71,-2633.75 60686.84,-4280.01l0 207519.81c0,12071.54 2194.86,20850.56 6474.87,26447.66 4279.57,5596.66 11193.33,8340.13 20631.11,8340.13 16021.94,0 30727.23,-9657.23 43896.41,-28861.96 13278.47,-19204.3 19863.06,-40823.34 19863.06,-65076.13l0 -122031.57 -46749.61 0 0 -20082.51c20411.67,0 41701.55,-549.04 63978.92,-1536.54 22277.37,-1097.21 46859.33,-2633.75 73635.71,-4718.89zm49360.19 264694.7l0 -95474.63 16461.26 0c7462.36,28313.36 19204.74,49712.96 35116.96,64088.64 10906.13,9785.75 23491.3,16214.28 37753.77,19322.76l0 18182.71c-7660.39,-922.8 -14935.22,-2413.43 -21841.54,-4473.22 -12510.42,-3731.4 -23594.03,-8998.9 -32922.09,-16022.38l-18765.41 14376.12 -15802.94 0zm122338.88 -10547.68c13149.08,-1554.9 24260.22,-5811.3 33383.27,-12717.19 11632.65,-8889.18 17448.76,-19972.78 17448.76,-33251.69 0,-16680.71 -19204.74,-27435.15 -57504.05,-32154.04 -10974.32,-1316.66 -19424.18,-2414.31 -25350.01,-3511.52 -33910.02,-4938.34 -57614.21,-13498.35 -71221.84,-25789.33 -13608.07,-12181.26 -20411.67,-30398.06 -20411.67,-54650.85 0,-28093.48 8340.13,-50480.57 25130.56,-67161.28 16680.71,-16570.99 39287.24,-24911.12 67819.6,-24911.12 10754.88,0 21509.32,1317.09 32154.04,3841.12 10754.88,2633.75 20850.99,6364.71 30288.34,11303.05l13827.51 -11961.81 13168.75 0 1975.42 73197.26 -16461.26 0c-6803.6,-19972.78 -16460.83,-35116.96 -28971.25,-45322.79 -12400.7,-10205.84 -27435.15,-15254.33 -45213.51,-15254.33 -17448.76,0 -31714.72,3402.24 -43127.93,10315.99 -11303.05,6803.6 -17009.87,15144.17 -17009.87,25020.84 0,14156.24 22167.65,24032.91 66502.95,29520.29 7133.2,877.77 12729.86,1645.82 16790.43,2304.59 34458.63,4279.57 58601.7,13278.47 72428.77,26886.1 13827.51,13608.07 20740.83,34568.35 20740.83,63101.15 0,30836.95 -8888.74,55089.74 -26666.66,72648.22 -15100.02,14913.36 -35029.97,23491.74 -59721.21,25738.62l0 -17191.28zm393199.83 -254147.02l0 244283.03 42140.43 0 0 19753.34c-20521.39,0 -41701.11,438.89 -63320.15,1316.66 -21619.04,878.21 -44664.46,2194.86 -69026.98,3950.84l0 -64966.41c-12839.58,23374.58 -27654.59,40384.45 -44445.02,51029.18 -16680.71,10645.16 -36763.21,15912.66 -60028.08,15912.66 -14815.01,0 -27764.31,-2085.14 -38848.36,-6255.43 -10973.88,-4170.29 -19863.06,-10425.28 -26447.66,-18545.97 -3840.68,-5157.78 -6584.16,-11413.21 -8230.41,-18656.13 -1646.26,-7352.64 -2414.31,-17777.92 -2414.31,-31495.71l0 -27764.31 0 -142223.8 -42798.76 0 0 -19753.34c25459.73,-438.89 49163.91,-1207.37 71001.96,-2304.59 21838.48,-1207.37 42030.71,-2633.75 60686.84,-4280.01l0 207519.81c0,12071.54 2194.86,20850.56 6474.87,26447.66 4279.57,5596.66 11193.33,8340.13 20631.11,8340.13 16021.94,0 30727.23,-9657.23 43896.41,-28861.96 13278.47,-19204.3 19863.06,-40823.34 19863.06,-65076.13l0 -122031.57 -46749.61 0 0 -20082.51c20411.67,0 41701.55,-549.04 63978.92,-1536.54 22277.37,-1097.21 46859.33,-2633.75 73635.71,-4718.89zm38825.19 264694.7l0 -19753.34 34897.51 0 0 -217286.76 -35555.84 0 0 -19753.34c20850.56,-877.77 41591.39,-1865.26 62222.94,-3182.36 20740.83,-1207.37 41482.11,-2853.19 62222.94,-4718.89l0 70563.51c8779.02,-22167.65 20301.95,-39396.96 34568.35,-51907.38 14266.4,-12400.7 29520.29,-18656.13 45871.4,-18656.13 16241.82,0 29849.46,5267.5 40823.78,15802.5 10864.16,10535.44 16351.54,23484.74 16351.54,38958.08 0,13717.79 -4389.73,25020.84 -13169.19,33910.02 -8888.74,8888.74 -19972.78,13388.19 -33580.42,13388.19 -11742.37,0 -21728.76,-4279.57 -29849.46,-12839.58 -8230.85,-8669.3 -12290.98,-18985.29 -12290.98,-31276.27 0,-4718.46 1316.66,-9547.07 3840.68,-14485.41 2633.75,-4938.34 3950.84,-8230.85 3950.84,-9986.39 0,-1097.65 -548.61,-1975.42 -1536.54,-2743.91 -877.77,-768.05 -2085.14,-1097.21 -3621.24,-1097.21 -9437.79,0 -19972.78,10644.72 -31715.16,31824.88 -11742.37,21289.88 -17668.2,43567.25 -17668.2,66941.83l0 116544.63 47407.93 0 0 19753.34 -173170.91 0zm562397.6 -264694.7l0 244283.03 42140.43 0 0 19753.34c-20521.39,0 -41701.11,438.89 -63320.15,1316.66 -21619.04,878.21 -44664.46,2194.86 -69026.98,3950.84l0 -64966.41c-12839.58,23374.58 -27654.59,40384.45 -44445.02,51029.18 -16680.71,10645.16 -36763.21,15912.66 -60028.08,15912.66 -14815.01,0 -27764.31,-2085.14 -38848.36,-6255.43 -10973.88,-4170.29 -19863.06,-10425.28 -26447.66,-18545.97 -3840.68,-5157.78 -6584.16,-11413.21 -8230.41,-18656.13 -1646.26,-7352.64 -2414.31,-17777.92 -2414.31,-31495.71l0 -27764.31 0 -142223.8 -42798.76 0 0 -19753.34c25459.73,-438.89 49163.91,-1207.37 71001.96,-2304.59 21838.48,-1207.37 42030.71,-2633.75 60686.84,-4280.01l0 207519.81c0,12071.54 2194.86,20850.56 6474.87,26447.66 4279.57,5596.66 11193.33,8340.13 20631.11,8340.13 16021.94,0 30727.23,-9657.23 43896.41,-28861.96 13278.47,-19204.3 19863.06,-40823.34 19863.06,-65076.13l0 -122031.57 -46749.61 0 0 -20082.51c20411.67,0 41701.55,-549.04 63978.92,-1536.54 22277.37,-1097.21 46859.33,-2633.75 73635.71,-4718.89zm40141.84 264694.7l0 -13827.51 144857.99 -223212.59 -44774.18 0c-15253.89,0 -27764.31,5486.94 -37750.71,16570.99 -9986.39,10973.88 -20850.99,32483.21 -32703.09,64417.8l-17777.92 0 3182.79 -100742.13 230565.23 0 0 15693.21 -144199.66 221346.89 44774.18 0c18436.69,0 33580.86,-6365.15 45652.39,-18985.29 11961.81,-12620.14 24691.68,-36323.89 37970.15,-71221.4l17777.92 0 -4608.73 109960.04 -242966.37 0z"/>
  <path class="fil1" d="M1845087.95 668634.54l18311.23 0 0 -112241.45 -21024.1 0 0 -10172.61c10399.05,0 21080.93,-282.83 32101.58,-791.65 10963.83,-508.39 22436.93,-1243.22 34361.58,-2260.43l0 33966.41c6273.35,-11811.88 13677.14,-20458.88 22210.93,-25828.23 8477.83,-5425.31 18763.66,-8138.18 30745.15,-8138.18 12377.09,0 21815.32,2769.26 28314.67,8251.4 6499.35,5538.52 9946.61,13733.53 10285.83,24528.19 6273.35,-11359.88 13733.53,-19667.66 22267.32,-24923.8 8534.22,-5256.13 18933.27,-7855.79 31027.54,-7855.79 7629.79,0 14185.53,1017.22 19667.66,3052.09 5425.74,2034.44 9947.05,5199.31 13451.14,9551 2147.65,2430.04 3616.87,5368.92 4521.31,8929.83 847.61,3503.65 1299.61,8533.79 1299.61,15033.14l0 9777.44 0 79122.65 20685.32 0 0 10173.05 -84096.4 0 0 -10173.05 17633.23 0 0 -93365.01c0,-6160.13 -1074.05,-10625.05 -3278.09,-13394.31 -2204.04,-2769.26 -5764.52,-4125.7 -10625.05,-4125.7 -8364.61,0 -15937.57,4804.13 -22719.75,14411.53 -6781.74,9607.83 -10173.05,20741.71 -10173.05,33401.19l0 63072.3 16616.01 0 0 10173.05 -78670.65 0 0 -10173.05 17294.01 0 0 -93365.01c0,-6160.13 -1074.05,-10625.05 -3278.09,-13394.31 -2204.04,-2769.26 -5764.52,-4125.7 -10625.05,-4125.7 -8138.18,0 -15541.97,4804.13 -22210.93,14468.36 -6668.96,9664.22 -10003.44,20798.1 -10003.44,33344.37l0 63072.3 16616.01 0 0 10173.05 -80705.52 0 0 -10173.05zm323939.86 -71888.47l44760.63 0 0 -25715.01c0,-7177.79 -1808.44,-12377.09 -5368.92,-15598.79 -3560.48,-3221.26 -9268.61,-4803.7 -17068.01,-4803.7 -7516.57,0 -13111.48,1695.65 -16785.18,5086.52 -3673.7,3334.48 -5538.52,8477.4 -5538.52,15315.97l0 25715.01zm82739.96 37300.45l7798.96 2656.48c-5651.74,15541.97 -13902.7,27071.45 -24754.19,34588.02 -10907.44,7516.57 -24866.97,11246.66 -41991.37,11246.66 -23510.97,0 -42331.03,-6216.96 -56346.95,-18706.84 -14015.92,-12490.31 -21024.1,-29105.89 -21024.1,-49847.59 0,-20515.27 7234.18,-37583.28 21758.93,-51147.2 14524.75,-13563.92 32835.97,-20345.66 54933.68,-20345.66 20289.27,0 36340.06,5594.92 48095.55,16841.57 11755.49,11190.27 17633.23,26506.23 17633.23,45947.9l0 1638.83 -88843.7 0 0 33288.41c0,12941.87 2034.44,21815.32 6046.91,26619.01 4012.92,4803.7 11020.66,7234.18 21080.93,7234.18 13563.92,0 24980.19,-3334.48 34248.8,-10059.83 9268.61,-6668.96 16389.57,-16672.4 21363.32,-29953.93zm125567.14 -8590.18l0 -25319.41c0,-14581.14 -3447.7,-26167.01 -10342.66,-34814.02 -6894.96,-8647 -15937.57,-12998.7 -27184.23,-12998.7 -6329.74,0 -10681.44,1638.83 -13111.92,4973.31 -2430.04,3278.09 -3616.87,9890.22 -3616.87,19837.27l0 70475.65c0,10116.66 1243.22,16898.4 3730.09,20458.88 2486.87,3560.48 6781.74,5312.52 12998.7,5312.52 11246.66,0 20289.27,-4351.7 27184.23,-12998.7 6894.96,-8703.4 10342.66,-20345.66 10342.66,-34926.8zm0 53351.25l0 -21080.49c-5086.52,8364.18 -11246.66,14637.53 -18480.84,18876.45 -7234.18,4182.09 -15598.36,6273.35 -25206.19,6273.35 -17689.62,0 -32497.19,-6725.79 -44478.68,-20120.1 -11981.49,-13394.31 -17972.01,-30009.88 -17972.01,-49734.38 0,-20402.05 5934.13,-37300.45 17746.01,-50581.98 11811.88,-13281.53 26675.84,-19950.05 44704.68,-19950.05 9494.61,0 17859.23,2147.22 25149.8,6386.13 7290.57,4238.92 13450.7,10568.66 18537.23,18989.66l0 -99299.58 -26110.62 0 169.61 -10172.61c14015.92,-339.22 27071.45,-848.05 39109.33,-1526.04 12037.88,-734.83 22888.92,-1582.44 32609.98,-2543.26l0 214309.86 18311.23 0 0 10173.05 -64089.51 0zm129692.83 39109.33c-5142.92,11981.49 -10738.27,20854.49 -16785.18,26562.62 -5990.96,5708.13 -12772.7,8590.61 -20232.88,8590.61 -6951.79,0 -12320.7,-1808.44 -16050.79,-5369.35 -3786.48,-3616.87 -5651.74,-8703.4 -5651.74,-15315.53 0,-5708.13 1921.65,-10512.27 5708.13,-14298.75 3786.92,-3786.48 8590.61,-5708.13 14298.75,-5708.13 5651.74,0 10342.66,1921.65 14185.53,5764.52 3786.92,3843.31 6160.57,5764.52 7177.79,5764.52 1752.04,0 3277.65,-678 4464.92,-1978.04 1186.83,-1356.44 2656.04,-3956.09 4294.87,-7855.79l14920.36 -34983.63 -62224.25 -122357.68 -14355.14 0 0 -10173.05 81044.31 0 0 10173.05 -16559.18 0 33061.97 70871.69 25149.8 -57929.38c791.22,-1695.65 1299.61,-3052.09 1582.44,-4069.31 282.39,-1073.61 452,-2260.43 452,-3560.48 0,-1695.65 -791.22,-2995.26 -2317.26,-3899.7 -1582.44,-960.83 -3842.87,-1412.83 -6781.74,-1412.83l-12942.31 0 0 -10173.05 52955.64 0 0 10173.05 -9268.61 0c-2995.26,0 -5368.92,734.83 -7120.96,2147.65 -1752.04,1469.22 -3278.09,3842.87 -4634.09,7290.57l-64372.34 151746.39zm181462.08 -58776.99c-6781.74,8081.79 -14129.14,13959.53 -22154.53,17576.4 -7968.57,3673.7 -17576.4,5482.13 -28710.28,5482.13 -11359.44,0 -20119.66,-2882.04 -26336.62,-8590.18 -6160.13,-5764.96 -9268.61,-13959.53 -9268.61,-24528.19 0,-14355.14 7686.18,-25828.23 23002.14,-34418.41 15372.36,-8534.22 36170.46,-12829.53 62450.69,-12829.53l0 -32101.15c0,-7403.79 -1582.44,-12320.7 -4690.92,-14750.75 -3164.87,-2430.04 -9155.83,-3673.7 -17972.01,-3673.7 -5708.13,0 -10060.27,678.44 -12999.14,1978.04 -2938.43,1356.44 -4351.7,3278.09 -4351.7,5821.35 0,678.44 1017.65,2825.65 3052.09,6555.74 2034.44,3673.7 3051.65,7403.79 3051.65,11190.27 0,6386.57 -1978.04,11303.49 -5877.74,14750.75 -3899.26,3447.7 -9494.61,5143.35 -16785.18,5143.35 -6442.96,0 -11359.88,-1752.04 -14863.97,-5312.52 -3447.26,-3560.92 -5199.31,-8703.83 -5199.31,-15429.18 0,-10625.05 5482.13,-18876.45 16389.57,-24697.8 10907.88,-5877.74 26393.45,-8816.18 46343.51,-8816.18 8816.61,0 16842.01,621.61 24019.36,1921.22 7177.79,1243.65 13055.53,3108.48 17689.62,5538.52 5199.74,2656.48 8816.61,5934.57 10851.49,9777.44 2034.44,3899.7 3051.65,10907.88 3051.65,21080.49l0 68498.04c0,4012.48 847.61,6951.35 2543.26,8759.79 1752.04,1865.26 4408.09,2769.7 8081.79,2769.7 1526.04,0 3164.87,-508.83 4860.53,-1526.04 1752.04,-1017.22 2938.87,-1526.04 3560.48,-1526.04 904.44,0 1695.65,339.22 2317.26,1017.22 678,678.44 1017.22,1469.65 1017.22,2486.87 0,4182.09 -3221.26,8759.79 -9664.22,13620.31 -6499.35,4860.53 -13846.75,7290.57 -22154.53,7290.57 -7403.79,0 -13846.31,-2034.44 -19328.44,-6160.13 -5538.52,-4069.31 -9495.05,-9721.05 -11925.09,-16898.4zm-1017.22 -48151.94l-3956.09 0c-13677.14,0 -23284.97,1978.04 -28823.5,5877.74 -5482.13,3899.7 -8251.4,10511.83 -8251.4,19893.66 0,9607.83 1469.65,16446.4 4408.53,20572.1 2882.04,4125.7 7686.18,6216.52 14298.31,6216.52 6612.57,0 11981.49,-2204.04 16107.18,-6612.13 4125.7,-4408.53 6216.96,-10286.27 6216.96,-17520.01l0 -28427.89z"/>
 </g>
</svg>
